M48
;DRILL file {KiCad 4.0.4-stable} date 02/23/17 00:54:37
;FORMAT={-:-/ absolute / inch / decimal}
FMAT,2
INCH,TZ
T1C0.016
T2C0.030
T3C0.039
T4C0.040
%
G90
G05
M72
T1
X2.55Y-1.325
X2.675Y-2.15
X2.725Y-2.075
X2.725Y-2.2
X2.725Y-2.275
X3.05Y-1.7
X3.05Y-1.775
X3.1Y-1.775
X3.15Y-1.85
X3.3Y-2.725
X3.525Y-1.7
X3.525Y-2.675
X3.625Y-2.7
X3.65Y-2.775
X3.775Y-1.775
X3.775Y-1.85
X3.8Y-1.375
X3.825Y-1.875
X3.825Y-2.
X3.875Y-1.725
X3.9Y-2.7
X4.025Y-1.925
X4.075Y-1.375
X4.1Y-2.7
X4.225Y-2.7
X4.275Y-1.575
X4.3Y-2.35
X4.35Y-2.025
X4.35Y-2.15
X4.375Y-1.5
T2
X3.3Y-1.28
X3.4Y-1.28
X3.5Y-1.28
X3.6Y-1.28
T3
X2.58Y-2.54
X2.68Y-2.54
X2.78Y-2.54
X2.88Y-2.54
X3.26Y-2.54
X3.36Y-2.54
X3.46Y-2.54
X3.56Y-2.54
X3.96Y-2.54
X4.06Y-2.54
X4.16Y-2.54
X4.26Y-2.54
T4
X2.72Y-1.46
X2.72Y-2.36
X2.82Y-1.46
X2.82Y-2.36
X2.92Y-1.46
X2.92Y-2.36
X3.02Y-1.46
X3.02Y-2.36
X3.12Y-1.46
X3.12Y-2.36
X3.22Y-1.46
X3.22Y-2.36
X3.32Y-1.46
X3.32Y-2.36
X3.42Y-1.46
X3.42Y-2.36
X3.52Y-1.46
X3.52Y-2.36
X3.62Y-1.46
X3.62Y-2.36
X3.72Y-1.46
X3.72Y-2.36
X3.82Y-1.46
X3.82Y-2.36
X3.92Y-1.46
X3.92Y-2.36
X4.02Y-1.46
X4.02Y-2.36
X4.12Y-1.46
X4.12Y-2.36
T0
M30
