G04 #@! TF.FileFunction,Copper,L2,Bot,Signal*
%FSLAX46Y46*%
G04 Gerber Fmt 4.6, Leading zero omitted, Abs format (unit mm)*
G04 Created by KiCad (PCBNEW 4.0.4-stable) date 02/23/17 00:53:12*
%MOMM*%
%LPD*%
G01*
G04 APERTURE LIST*
%ADD10C,0.100000*%
%ADD11R,1.700000X1.700000*%
%ADD12O,1.700000X1.700000*%
%ADD13C,1.524000*%
%ADD14R,2.000000X1.700000*%
%ADD15O,1.727200X2.032000*%
%ADD16C,0.600000*%
%ADD17C,0.250000*%
G04 APERTURE END LIST*
D10*
D11*
X73152000Y-64516000D03*
D12*
X70612000Y-64516000D03*
X68072000Y-64516000D03*
X65532000Y-64516000D03*
D11*
X90424000Y-64516000D03*
D12*
X87884000Y-64516000D03*
X85344000Y-64516000D03*
X82804000Y-64516000D03*
D13*
X83820000Y-32512000D03*
X86360000Y-32512000D03*
X88900000Y-32512000D03*
X91440000Y-32512000D03*
D11*
X108204000Y-64516000D03*
D12*
X105664000Y-64516000D03*
X103124000Y-64516000D03*
X100584000Y-64516000D03*
D14*
X72104000Y-32512000D03*
X68104000Y-32512000D03*
X103156000Y-32512000D03*
X107156000Y-32512000D03*
D15*
X104648000Y-59944000D03*
X102108000Y-59944000D03*
X99568000Y-59944000D03*
X97028000Y-59944000D03*
X94488000Y-59944000D03*
X91948000Y-59944000D03*
X89408000Y-59944000D03*
X86868000Y-59944000D03*
X84328000Y-59944000D03*
X81788000Y-59944000D03*
X79248000Y-59944000D03*
X76708000Y-59944000D03*
X74168000Y-59944000D03*
X71628000Y-59944000D03*
X69088000Y-59944000D03*
X104648000Y-37084000D03*
X74168000Y-37084000D03*
X71628000Y-37084000D03*
X76708000Y-37084000D03*
X91948000Y-37084000D03*
X94488000Y-37084000D03*
X89408000Y-37084000D03*
X69088000Y-37084000D03*
X84328000Y-37084000D03*
X86868000Y-37084000D03*
X81788000Y-37084000D03*
X79248000Y-37084000D03*
X99568000Y-37084000D03*
X97028000Y-37084000D03*
X102108000Y-37084000D03*
D16*
X97155000Y-47625000D03*
X97155000Y-50800000D03*
X107315000Y-68580000D03*
X104140000Y-68580000D03*
X99060000Y-68580000D03*
X92075000Y-68580000D03*
X89535000Y-67945000D03*
X83820000Y-69215000D03*
X77470000Y-43180000D03*
X77470000Y-45085000D03*
X69215000Y-55880000D03*
X109220000Y-59690000D03*
X92710000Y-70485000D03*
X69215000Y-57785000D03*
X102235000Y-48895000D03*
X78740000Y-45085000D03*
X110490000Y-54610000D03*
X103505000Y-34925000D03*
X95885000Y-45085000D03*
X95885000Y-46990000D03*
X64770000Y-33655000D03*
X96520000Y-34925000D03*
X110490000Y-51435000D03*
X108585000Y-40005000D03*
X89535000Y-43180000D03*
X80010000Y-46990000D03*
X69215000Y-52705000D03*
X67945000Y-54610000D03*
X111125000Y-38100000D03*
X98425000Y-43815000D03*
D17*
X104648000Y-37084000D02*
X104648000Y-37592000D01*
X104648000Y-37592000D02*
X101600000Y-40640000D01*
X101600000Y-40640000D02*
X101600000Y-42545000D01*
X101600000Y-42545000D02*
X97155000Y-46990000D01*
X97155000Y-46990000D02*
X97155000Y-47625000D01*
X97155000Y-50800000D02*
X97155000Y-57785000D01*
X97155000Y-57785000D02*
X97790000Y-58420000D01*
X97790000Y-58420000D02*
X102235000Y-58420000D01*
X102235000Y-58420000D02*
X102870000Y-57785000D01*
X102870000Y-57785000D02*
X109220000Y-57785000D01*
X109220000Y-57785000D02*
X110490000Y-59055000D01*
X110490000Y-59055000D02*
X110490000Y-66675000D01*
X110490000Y-66675000D02*
X108585000Y-68580000D01*
X108585000Y-68580000D02*
X107315000Y-68580000D01*
X104140000Y-68580000D02*
X99060000Y-68580000D01*
X92075000Y-68580000D02*
X91440000Y-67945000D01*
X91440000Y-67945000D02*
X89535000Y-67945000D01*
X83820000Y-69215000D02*
X74295000Y-69215000D01*
X74295000Y-69215000D02*
X73152000Y-68072000D01*
X73152000Y-68072000D02*
X73152000Y-64516000D01*
X79248000Y-41402000D02*
X79248000Y-37084000D01*
X77470000Y-43180000D02*
X79248000Y-41402000D01*
X77470000Y-50800000D02*
X77470000Y-45085000D01*
X74295000Y-53975000D02*
X77470000Y-50800000D01*
X71120000Y-53975000D02*
X74295000Y-53975000D01*
X69215000Y-55880000D02*
X71120000Y-53975000D01*
X68072000Y-64516000D02*
X68072000Y-68072000D01*
X108966000Y-59944000D02*
X104648000Y-59944000D01*
X109220000Y-59690000D02*
X108966000Y-59944000D01*
X70485000Y-70485000D02*
X92710000Y-70485000D01*
X68072000Y-68072000D02*
X70485000Y-70485000D01*
X72390000Y-57785000D02*
X74168000Y-59563000D01*
X69215000Y-57785000D02*
X72390000Y-57785000D01*
X74168000Y-59563000D02*
X74168000Y-59944000D01*
X87884000Y-67691000D02*
X87884000Y-64516000D01*
X86995000Y-68580000D02*
X87884000Y-67691000D01*
X81280000Y-68580000D02*
X86995000Y-68580000D01*
X75565000Y-62865000D02*
X81280000Y-68580000D01*
X67945000Y-62865000D02*
X75565000Y-62865000D01*
X66675000Y-61595000D02*
X67945000Y-62865000D01*
X66675000Y-46990000D02*
X66675000Y-61595000D01*
X69215000Y-44450000D02*
X66675000Y-46990000D01*
X80010000Y-44450000D02*
X69215000Y-44450000D01*
X84328000Y-40132000D02*
X80010000Y-44450000D01*
X84328000Y-37084000D02*
X84328000Y-40132000D01*
X83820000Y-32512000D02*
X83820000Y-33655000D01*
X87249000Y-34925000D02*
X89408000Y-37084000D01*
X85090000Y-34925000D02*
X87249000Y-34925000D01*
X83820000Y-33655000D02*
X85090000Y-34925000D01*
X86360000Y-32512000D02*
X86360000Y-33020000D01*
X86360000Y-33020000D02*
X87630000Y-34290000D01*
X87630000Y-34290000D02*
X89154000Y-34290000D01*
X89154000Y-34290000D02*
X91948000Y-37084000D01*
X88900000Y-32512000D02*
X88900000Y-31750000D01*
X88900000Y-31750000D02*
X89535000Y-31115000D01*
X89535000Y-31115000D02*
X95885000Y-31115000D01*
X95885000Y-31115000D02*
X99060000Y-34290000D01*
X99060000Y-34290000D02*
X100965000Y-34290000D01*
X100965000Y-34290000D02*
X102108000Y-35433000D01*
X102108000Y-35433000D02*
X102108000Y-37084000D01*
X91440000Y-32512000D02*
X95123000Y-32512000D01*
X97790000Y-34290000D02*
X99695000Y-36195000D01*
X96901000Y-34290000D02*
X97790000Y-34290000D01*
X95123000Y-32512000D02*
X96901000Y-34290000D01*
X99695000Y-36195000D02*
X99568000Y-37084000D01*
X108204000Y-64516000D02*
X108204000Y-63119000D01*
X84074000Y-62230000D02*
X81788000Y-59944000D01*
X107315000Y-62230000D02*
X84074000Y-62230000D01*
X108204000Y-63119000D02*
X107315000Y-62230000D01*
X93980000Y-71120000D02*
X104140000Y-71120000D01*
X105664000Y-69596000D02*
X105664000Y-64516000D01*
X104140000Y-71120000D02*
X105664000Y-69596000D01*
X69088000Y-37084000D02*
X68961000Y-37084000D01*
X68961000Y-37084000D02*
X66040000Y-40005000D01*
X66040000Y-40005000D02*
X66040000Y-59690000D01*
X66040000Y-59690000D02*
X62865000Y-62865000D01*
X62865000Y-62865000D02*
X62865000Y-68580000D01*
X62865000Y-68580000D02*
X65405000Y-71120000D01*
X65405000Y-71120000D02*
X93980000Y-71120000D01*
X93980000Y-71120000D02*
X100584000Y-64516000D01*
X100330000Y-48895000D02*
X102235000Y-48895000D01*
X78740000Y-46990000D02*
X78740000Y-45085000D01*
X80645000Y-48895000D02*
X78740000Y-46990000D01*
X100330000Y-48895000D02*
X80645000Y-48895000D01*
X104140000Y-52705000D02*
X100330000Y-48895000D01*
X108585000Y-52705000D02*
X104140000Y-52705000D01*
X110490000Y-54610000D02*
X108585000Y-52705000D01*
X103156000Y-34576000D02*
X103156000Y-32512000D01*
X103505000Y-34925000D02*
X103156000Y-34576000D01*
X95885000Y-46990000D02*
X95885000Y-45085000D01*
X103156000Y-32512000D02*
X99187000Y-32512000D01*
X99187000Y-32512000D02*
X97155000Y-30480000D01*
X97155000Y-30480000D02*
X74136000Y-30480000D01*
X74136000Y-30480000D02*
X72104000Y-32512000D01*
X65913000Y-32512000D02*
X68104000Y-32512000D01*
X64770000Y-33655000D02*
X65913000Y-32512000D01*
X94488000Y-36957000D02*
X96520000Y-34925000D01*
X109220000Y-51435000D02*
X110490000Y-51435000D01*
X108585000Y-50800000D02*
X109220000Y-51435000D01*
X108585000Y-40005000D02*
X108585000Y-50800000D01*
X94488000Y-37084000D02*
X94488000Y-36957000D01*
X83820000Y-43180000D02*
X89535000Y-43180000D01*
X80010000Y-46990000D02*
X83820000Y-43180000D01*
X69215000Y-53340000D02*
X69215000Y-52705000D01*
X67945000Y-54610000D02*
X69215000Y-53340000D01*
X107156000Y-32512000D02*
X107442000Y-32512000D01*
X107442000Y-32512000D02*
X111125000Y-36195000D01*
X111125000Y-36195000D02*
X111125000Y-38100000D01*
X86868000Y-37084000D02*
X86868000Y-37973000D01*
X86868000Y-37973000D02*
X92710000Y-43815000D01*
X92710000Y-43815000D02*
X98425000Y-43815000D01*
M02*
