G04 #@! TF.FileFunction,Paste,Top*
%FSLAX46Y46*%
G04 Gerber Fmt 4.6, Leading zero omitted, Abs format (unit mm)*
G04 Created by KiCad (PCBNEW 4.0.4-stable) date 02/23/17 08:50:32*
%MOMM*%
%LPD*%
G01*
G04 APERTURE LIST*
%ADD10C,0.100000*%
%ADD11C,0.300000*%
%ADD12R,2.000000X1.700000*%
%ADD13R,1.550000X1.300000*%
G04 APERTURE END LIST*
D10*
D11*
X121551429Y-55182287D02*
X121551429Y-56182287D01*
X120051429Y-55539430D01*
X121551429Y-57039429D02*
X121551429Y-57182286D01*
X121480000Y-57325143D01*
X121408571Y-57396572D01*
X121265714Y-57468001D01*
X120980000Y-57539429D01*
X120622857Y-57539429D01*
X120337143Y-57468001D01*
X120194286Y-57396572D01*
X120122857Y-57325143D01*
X120051429Y-57182286D01*
X120051429Y-57039429D01*
X120122857Y-56896572D01*
X120194286Y-56825143D01*
X120337143Y-56753715D01*
X120622857Y-56682286D01*
X120980000Y-56682286D01*
X121265714Y-56753715D01*
X121408571Y-56825143D01*
X121480000Y-56896572D01*
X121551429Y-57039429D01*
X120122857Y-58253714D02*
X120051429Y-58253714D01*
X119908571Y-58182286D01*
X119837143Y-58110857D01*
X120051429Y-59682286D02*
X120051429Y-58825143D01*
X120051429Y-59253715D02*
X121551429Y-59253715D01*
X121337143Y-59110858D01*
X121194286Y-58968000D01*
X121122857Y-58825143D01*
X121551429Y-60610857D02*
X121551429Y-60753714D01*
X121480000Y-60896571D01*
X121408571Y-60968000D01*
X121265714Y-61039429D01*
X120980000Y-61110857D01*
X120622857Y-61110857D01*
X120337143Y-61039429D01*
X120194286Y-60968000D01*
X120122857Y-60896571D01*
X120051429Y-60753714D01*
X120051429Y-60610857D01*
X120122857Y-60468000D01*
X120194286Y-60396571D01*
X120337143Y-60325143D01*
X120622857Y-60253714D01*
X120980000Y-60253714D01*
X121265714Y-60325143D01*
X121408571Y-60396571D01*
X121480000Y-60468000D01*
X121551429Y-60610857D01*
X121051429Y-62396571D02*
X120051429Y-62396571D01*
X121622857Y-62039428D02*
X120551429Y-61682285D01*
X120551429Y-62610857D01*
X120051429Y-64325142D02*
X121051429Y-64325142D01*
X120908571Y-64325142D02*
X120980000Y-64396570D01*
X121051429Y-64539428D01*
X121051429Y-64753713D01*
X120980000Y-64896570D01*
X120837143Y-64967999D01*
X120051429Y-64967999D01*
X120837143Y-64967999D02*
X120980000Y-65039428D01*
X121051429Y-65182285D01*
X121051429Y-65396570D01*
X120980000Y-65539428D01*
X120837143Y-65610856D01*
X120051429Y-65610856D01*
X120051429Y-66325142D02*
X121051429Y-66325142D01*
X120908571Y-66325142D02*
X120980000Y-66396570D01*
X121051429Y-66539428D01*
X121051429Y-66753713D01*
X120980000Y-66896570D01*
X120837143Y-66967999D01*
X120051429Y-66967999D01*
X120837143Y-66967999D02*
X120980000Y-67039428D01*
X121051429Y-67182285D01*
X121051429Y-67396570D01*
X120980000Y-67539428D01*
X120837143Y-67610856D01*
X120051429Y-67610856D01*
X119380000Y-26416000D02*
X119380000Y-96520000D01*
X112268000Y-26416000D02*
X122080000Y-26416000D01*
X112268000Y-96520000D02*
X122080000Y-96520000D01*
X119380000Y-96520000D02*
X118793579Y-95393496D01*
X119380000Y-96520000D02*
X119966421Y-95393496D01*
X119380000Y-26416000D02*
X118793579Y-27542504D01*
X119380000Y-26416000D02*
X119966421Y-27542504D01*
X81439430Y-17640571D02*
X80725144Y-17640571D01*
X80653715Y-18354857D01*
X80725144Y-18283429D01*
X80868001Y-18212000D01*
X81225144Y-18212000D01*
X81368001Y-18283429D01*
X81439430Y-18354857D01*
X81510858Y-18497714D01*
X81510858Y-18854857D01*
X81439430Y-18997714D01*
X81368001Y-19069143D01*
X81225144Y-19140571D01*
X80868001Y-19140571D01*
X80725144Y-19069143D01*
X80653715Y-18997714D01*
X82939429Y-19140571D02*
X82082286Y-19140571D01*
X82510858Y-19140571D02*
X82510858Y-17640571D01*
X82368001Y-17854857D01*
X82225143Y-17997714D01*
X82082286Y-18069143D01*
X83653714Y-19069143D02*
X83653714Y-19140571D01*
X83582286Y-19283429D01*
X83510857Y-19354857D01*
X84510858Y-18283429D02*
X84368000Y-18212000D01*
X84296572Y-18140571D01*
X84225143Y-17997714D01*
X84225143Y-17926286D01*
X84296572Y-17783429D01*
X84368000Y-17712000D01*
X84510858Y-17640571D01*
X84796572Y-17640571D01*
X84939429Y-17712000D01*
X85010858Y-17783429D01*
X85082286Y-17926286D01*
X85082286Y-17997714D01*
X85010858Y-18140571D01*
X84939429Y-18212000D01*
X84796572Y-18283429D01*
X84510858Y-18283429D01*
X84368000Y-18354857D01*
X84296572Y-18426286D01*
X84225143Y-18569143D01*
X84225143Y-18854857D01*
X84296572Y-18997714D01*
X84368000Y-19069143D01*
X84510858Y-19140571D01*
X84796572Y-19140571D01*
X84939429Y-19069143D01*
X85010858Y-18997714D01*
X85082286Y-18854857D01*
X85082286Y-18569143D01*
X85010858Y-18426286D01*
X84939429Y-18354857D01*
X84796572Y-18283429D01*
X86510857Y-19140571D02*
X85653714Y-19140571D01*
X86082286Y-19140571D02*
X86082286Y-17640571D01*
X85939429Y-17854857D01*
X85796571Y-17997714D01*
X85653714Y-18069143D01*
X87796571Y-17640571D02*
X87510857Y-17640571D01*
X87368000Y-17712000D01*
X87296571Y-17783429D01*
X87153714Y-17997714D01*
X87082285Y-18283429D01*
X87082285Y-18854857D01*
X87153714Y-18997714D01*
X87225142Y-19069143D01*
X87368000Y-19140571D01*
X87653714Y-19140571D01*
X87796571Y-19069143D01*
X87868000Y-18997714D01*
X87939428Y-18854857D01*
X87939428Y-18497714D01*
X87868000Y-18354857D01*
X87796571Y-18283429D01*
X87653714Y-18212000D01*
X87368000Y-18212000D01*
X87225142Y-18283429D01*
X87153714Y-18354857D01*
X87082285Y-18497714D01*
X89725142Y-19140571D02*
X89725142Y-18140571D01*
X89725142Y-18283429D02*
X89796570Y-18212000D01*
X89939428Y-18140571D01*
X90153713Y-18140571D01*
X90296570Y-18212000D01*
X90367999Y-18354857D01*
X90367999Y-19140571D01*
X90367999Y-18354857D02*
X90439428Y-18212000D01*
X90582285Y-18140571D01*
X90796570Y-18140571D01*
X90939428Y-18212000D01*
X91010856Y-18354857D01*
X91010856Y-19140571D01*
X91725142Y-19140571D02*
X91725142Y-18140571D01*
X91725142Y-18283429D02*
X91796570Y-18212000D01*
X91939428Y-18140571D01*
X92153713Y-18140571D01*
X92296570Y-18212000D01*
X92367999Y-18354857D01*
X92367999Y-19140571D01*
X92367999Y-18354857D02*
X92439428Y-18212000D01*
X92582285Y-18140571D01*
X92796570Y-18140571D01*
X92939428Y-18212000D01*
X93010856Y-18354857D01*
X93010856Y-19140571D01*
X60960000Y-19812000D02*
X112776000Y-19812000D01*
X60960000Y-26416000D02*
X60960000Y-17112000D01*
X112776000Y-26416000D02*
X112776000Y-17112000D01*
X112776000Y-19812000D02*
X111649496Y-20398421D01*
X112776000Y-19812000D02*
X111649496Y-19225579D01*
X60960000Y-19812000D02*
X62086504Y-20398421D01*
X60960000Y-19812000D02*
X62086504Y-19225579D01*
D12*
X104172000Y-55880000D03*
X108172000Y-55880000D03*
X104172000Y-49784000D03*
X108172000Y-49784000D03*
X104172000Y-52832000D03*
X108172000Y-52832000D03*
D13*
X64097000Y-41438000D03*
X72047000Y-41438000D03*
X64097000Y-45938000D03*
X72047000Y-45938000D03*
X64097000Y-51090000D03*
X72047000Y-51090000D03*
X64097000Y-55590000D03*
X72047000Y-55590000D03*
X102197000Y-41438000D03*
X110147000Y-41438000D03*
X102197000Y-45938000D03*
X110147000Y-45938000D03*
M02*
