G04 #@! TF.FileFunction,Copper,L1,Top,Signal*
%FSLAX46Y46*%
G04 Gerber Fmt 4.6, Leading zero omitted, Abs format (unit mm)*
G04 Created by KiCad (PCBNEW 4.0.4-stable) date 02/23/17 08:50:32*
%MOMM*%
%LPD*%
G01*
G04 APERTURE LIST*
%ADD10C,0.100000*%
%ADD11R,1.700000X1.700000*%
%ADD12O,1.700000X1.700000*%
%ADD13C,1.524000*%
%ADD14R,2.000000X1.700000*%
%ADD15R,1.550000X1.300000*%
%ADD16O,1.727200X2.032000*%
%ADD17C,0.600000*%
%ADD18C,0.250000*%
G04 APERTURE END LIST*
D10*
D11*
X73152000Y-64516000D03*
D12*
X70612000Y-64516000D03*
X68072000Y-64516000D03*
X65532000Y-64516000D03*
D11*
X90424000Y-64516000D03*
D12*
X87884000Y-64516000D03*
X85344000Y-64516000D03*
X82804000Y-64516000D03*
D13*
X83820000Y-32512000D03*
X86360000Y-32512000D03*
X88900000Y-32512000D03*
X91440000Y-32512000D03*
D11*
X108204000Y-64516000D03*
D12*
X105664000Y-64516000D03*
X103124000Y-64516000D03*
X100584000Y-64516000D03*
D14*
X104172000Y-55880000D03*
X108172000Y-55880000D03*
X104172000Y-49784000D03*
X108172000Y-49784000D03*
X104172000Y-52832000D03*
X108172000Y-52832000D03*
D15*
X64097000Y-41438000D03*
X72047000Y-41438000D03*
X64097000Y-45938000D03*
X72047000Y-45938000D03*
X64097000Y-51090000D03*
X72047000Y-51090000D03*
X64097000Y-55590000D03*
X72047000Y-55590000D03*
X102197000Y-41438000D03*
X110147000Y-41438000D03*
X102197000Y-45938000D03*
X110147000Y-45938000D03*
D16*
X104648000Y-59944000D03*
X102108000Y-59944000D03*
X99568000Y-59944000D03*
X97028000Y-59944000D03*
X94488000Y-59944000D03*
X91948000Y-59944000D03*
X89408000Y-59944000D03*
X86868000Y-59944000D03*
X84328000Y-59944000D03*
X81788000Y-59944000D03*
X79248000Y-59944000D03*
X76708000Y-59944000D03*
X74168000Y-59944000D03*
X71628000Y-59944000D03*
X69088000Y-59944000D03*
X104648000Y-37084000D03*
X74168000Y-37084000D03*
X71628000Y-37084000D03*
X76708000Y-37084000D03*
X91948000Y-37084000D03*
X94488000Y-37084000D03*
X89408000Y-37084000D03*
X69088000Y-37084000D03*
X84328000Y-37084000D03*
X86868000Y-37084000D03*
X81788000Y-37084000D03*
X79248000Y-37084000D03*
X99568000Y-37084000D03*
X97028000Y-37084000D03*
X102108000Y-37084000D03*
D17*
X97155000Y-47625000D03*
X97155000Y-50800000D03*
X107315000Y-68580000D03*
X104140000Y-68580000D03*
X99060000Y-68580000D03*
X92075000Y-68580000D03*
X89535000Y-67945000D03*
X83820000Y-69215000D03*
X77470000Y-43180000D03*
X77470000Y-45085000D03*
X69215000Y-55880000D03*
X109220000Y-59690000D03*
X92710000Y-70485000D03*
X69215000Y-57785000D03*
X102235000Y-48895000D03*
X78740000Y-45085000D03*
X110490000Y-54610000D03*
X103505000Y-34925000D03*
X95885000Y-45085000D03*
X95885000Y-46990000D03*
X64770000Y-33655000D03*
X96520000Y-34925000D03*
X110490000Y-51435000D03*
X108585000Y-40005000D03*
X89535000Y-43180000D03*
X80010000Y-46990000D03*
X69215000Y-52705000D03*
X67945000Y-54610000D03*
X111125000Y-38100000D03*
X98425000Y-43815000D03*
D18*
X97155000Y-47625000D02*
X97155000Y-50800000D01*
X107315000Y-68580000D02*
X104140000Y-68580000D01*
X99060000Y-68580000D02*
X92075000Y-68580000D01*
X89535000Y-67945000D02*
X88900000Y-67310000D01*
X88900000Y-67310000D02*
X85725000Y-67310000D01*
X85725000Y-67310000D02*
X83820000Y-69215000D01*
X70612000Y-64516000D02*
X70612000Y-69088000D01*
X77470000Y-45085000D02*
X77470000Y-43180000D01*
X67945000Y-55880000D02*
X69215000Y-55880000D01*
X62865000Y-60960000D02*
X67945000Y-55880000D01*
X62865000Y-67945000D02*
X62865000Y-60960000D01*
X65405000Y-70485000D02*
X62865000Y-67945000D01*
X69215000Y-70485000D02*
X65405000Y-70485000D01*
X70612000Y-69088000D02*
X69215000Y-70485000D01*
X109855000Y-59690000D02*
X109220000Y-59690000D01*
X110490000Y-60325000D02*
X109855000Y-59690000D01*
X110490000Y-68580000D02*
X110490000Y-60325000D01*
X107315000Y-71755000D02*
X110490000Y-68580000D01*
X93980000Y-71755000D02*
X107315000Y-71755000D01*
X92710000Y-70485000D02*
X93980000Y-71755000D01*
X65532000Y-64516000D02*
X65532000Y-62103000D01*
X67945000Y-57785000D02*
X69215000Y-57785000D01*
X67310000Y-58420000D02*
X67945000Y-57785000D01*
X67310000Y-60325000D02*
X67310000Y-58420000D01*
X65532000Y-62103000D02*
X67310000Y-60325000D01*
X103124000Y-64516000D02*
X103124000Y-67056000D01*
X100330000Y-69850000D02*
X91440000Y-69850000D01*
X91440000Y-69850000D02*
X88900000Y-69850000D01*
X103124000Y-67056000D02*
X102552500Y-67627500D01*
X102552500Y-67627500D02*
X100330000Y-69850000D01*
X69088000Y-59944000D02*
X69088000Y-62738000D01*
X90424000Y-68326000D02*
X90424000Y-64516000D01*
X88900000Y-69850000D02*
X90424000Y-68326000D01*
X81915000Y-69850000D02*
X88900000Y-69850000D01*
X74930000Y-62865000D02*
X81915000Y-69850000D01*
X69215000Y-62865000D02*
X74930000Y-62865000D01*
X69088000Y-62738000D02*
X69215000Y-62865000D01*
X104172000Y-55880000D02*
X104172000Y-57753000D01*
X86360000Y-62865000D02*
X85344000Y-63881000D01*
X106045000Y-62865000D02*
X86360000Y-62865000D01*
X107315000Y-61595000D02*
X106045000Y-62865000D01*
X107315000Y-58420000D02*
X107315000Y-61595000D01*
X106680000Y-57785000D02*
X107315000Y-58420000D01*
X104204000Y-57785000D02*
X106680000Y-57785000D01*
X104172000Y-57753000D02*
X104204000Y-57785000D01*
X85344000Y-63881000D02*
X85344000Y-64516000D01*
X82804000Y-64516000D02*
X80010000Y-64516000D01*
X80010000Y-64516000D02*
X77851000Y-64516000D01*
X71628000Y-62103000D02*
X71628000Y-59944000D01*
X71755000Y-62230000D02*
X71628000Y-62103000D01*
X75565000Y-62230000D02*
X71755000Y-62230000D01*
X77851000Y-64516000D02*
X75565000Y-62230000D01*
X71120000Y-55590000D02*
X71120000Y-55880000D01*
X70485000Y-58801000D02*
X71628000Y-59944000D01*
X70485000Y-56515000D02*
X70485000Y-58801000D01*
X71120000Y-55880000D02*
X70485000Y-56515000D01*
X66675000Y-53340000D02*
X68580000Y-53340000D01*
X70830000Y-55590000D02*
X71120000Y-55590000D01*
X71120000Y-55590000D02*
X72047000Y-55590000D01*
X68580000Y-53340000D02*
X70830000Y-55590000D01*
X64097000Y-45938000D02*
X72047000Y-45938000D01*
X72047000Y-45938000D02*
X102197000Y-45938000D01*
X102197000Y-45938000D02*
X110147000Y-45938000D01*
X110147000Y-45938000D02*
X110490000Y-46281000D01*
X110490000Y-46281000D02*
X110490000Y-47466000D01*
X110490000Y-47466000D02*
X108172000Y-49784000D01*
X64097000Y-55590000D02*
X65060000Y-55590000D01*
X66675000Y-48516000D02*
X64097000Y-45938000D01*
X66675000Y-53975000D02*
X66675000Y-53340000D01*
X66675000Y-53340000D02*
X66675000Y-48516000D01*
X65060000Y-55590000D02*
X66675000Y-53975000D01*
X103124000Y-49784000D02*
X104172000Y-49784000D01*
X102235000Y-48895000D02*
X103124000Y-49784000D01*
X108172000Y-55880000D02*
X109220000Y-55880000D01*
X81788000Y-42037000D02*
X81788000Y-37084000D01*
X78740000Y-45085000D02*
X81788000Y-42037000D01*
X109220000Y-55880000D02*
X110490000Y-54610000D01*
X95885000Y-52705000D02*
X95885000Y-46990000D01*
X106680000Y-34925000D02*
X103505000Y-34925000D01*
X106680000Y-39370000D02*
X106680000Y-34925000D01*
X99060000Y-39370000D02*
X106680000Y-39370000D01*
X95885000Y-42545000D02*
X99060000Y-39370000D01*
X95885000Y-45085000D02*
X95885000Y-42545000D01*
X84328000Y-59944000D02*
X84328000Y-59817000D01*
X84328000Y-59817000D02*
X91440000Y-52705000D01*
X91440000Y-52705000D02*
X95885000Y-52705000D01*
X95885000Y-52705000D02*
X104045000Y-52705000D01*
X104045000Y-52705000D02*
X104172000Y-52832000D01*
X64770000Y-33655000D02*
X65405000Y-33655000D01*
X95250000Y-35306000D02*
X97028000Y-37084000D01*
X95250000Y-31750000D02*
X95250000Y-35306000D01*
X93345000Y-29845000D02*
X95250000Y-31750000D01*
X83185000Y-29845000D02*
X93345000Y-29845000D01*
X78740000Y-34290000D02*
X83185000Y-29845000D01*
X66040000Y-34290000D02*
X78740000Y-34290000D01*
X65405000Y-33655000D02*
X66040000Y-34290000D01*
X64097000Y-41438000D02*
X72047000Y-41438000D01*
X64097000Y-41438000D02*
X64097000Y-34328000D01*
X64097000Y-34328000D02*
X64770000Y-33655000D01*
X96520000Y-34925000D02*
X100330000Y-34925000D01*
X100330000Y-34925000D02*
X100965000Y-34290000D01*
X100965000Y-34290000D02*
X108585000Y-34290000D01*
X110490000Y-51435000D02*
X109855000Y-52070000D01*
X108585000Y-34290000D02*
X108585000Y-40005000D01*
X109855000Y-52070000D02*
X108934000Y-52070000D01*
X108934000Y-52070000D02*
X108172000Y-52832000D01*
X72047000Y-51090000D02*
X75910000Y-51090000D01*
X94488000Y-40767000D02*
X94488000Y-37084000D01*
X93345000Y-41910000D02*
X94488000Y-40767000D01*
X90805000Y-41910000D02*
X93345000Y-41910000D01*
X89535000Y-43180000D02*
X90805000Y-41910000D01*
X75910000Y-51090000D02*
X80010000Y-46990000D01*
X64097000Y-51090000D02*
X64097000Y-53378000D01*
X70830000Y-51090000D02*
X72047000Y-51090000D01*
X69215000Y-52705000D02*
X70830000Y-51090000D01*
X65405000Y-57150000D02*
X67945000Y-54610000D01*
X64135000Y-57150000D02*
X65405000Y-57150000D01*
X62865000Y-57150000D02*
X64135000Y-57150000D01*
X62865000Y-54610000D02*
X62865000Y-57150000D01*
X64097000Y-53378000D02*
X62865000Y-54610000D01*
X111125000Y-38100000D02*
X110147000Y-39078000D01*
X110147000Y-39078000D02*
X110147000Y-41438000D01*
X110147000Y-41438000D02*
X102197000Y-41438000D01*
X98425000Y-43815000D02*
X100802000Y-41438000D01*
X100802000Y-41438000D02*
X102197000Y-41438000D01*
M02*
