G04 #@! TF.FileFunction,Soldermask,Bot*
%FSLAX46Y46*%
G04 Gerber Fmt 4.6, Leading zero omitted, Abs format (unit mm)*
G04 Created by KiCad (PCBNEW 4.0.4-stable) date 02/23/17 08:50:32*
%MOMM*%
%LPD*%
G01*
G04 APERTURE LIST*
%ADD10C,0.100000*%
%ADD11R,2.100000X2.100000*%
%ADD12O,2.100000X2.100000*%
%ADD13C,1.924000*%
%ADD14R,2.400000X2.100000*%
%ADD15O,2.127200X2.432000*%
G04 APERTURE END LIST*
D10*
D11*
X73152000Y-64516000D03*
D12*
X70612000Y-64516000D03*
X68072000Y-64516000D03*
X65532000Y-64516000D03*
D11*
X90424000Y-64516000D03*
D12*
X87884000Y-64516000D03*
X85344000Y-64516000D03*
X82804000Y-64516000D03*
D13*
X83820000Y-32512000D03*
X86360000Y-32512000D03*
X88900000Y-32512000D03*
X91440000Y-32512000D03*
D11*
X108204000Y-64516000D03*
D12*
X105664000Y-64516000D03*
X103124000Y-64516000D03*
X100584000Y-64516000D03*
D14*
X72104000Y-32512000D03*
X68104000Y-32512000D03*
X103156000Y-32512000D03*
X107156000Y-32512000D03*
D15*
X104648000Y-59944000D03*
X102108000Y-59944000D03*
X99568000Y-59944000D03*
X97028000Y-59944000D03*
X94488000Y-59944000D03*
X91948000Y-59944000D03*
X89408000Y-59944000D03*
X86868000Y-59944000D03*
X84328000Y-59944000D03*
X81788000Y-59944000D03*
X79248000Y-59944000D03*
X76708000Y-59944000D03*
X74168000Y-59944000D03*
X71628000Y-59944000D03*
X69088000Y-59944000D03*
X104648000Y-37084000D03*
X74168000Y-37084000D03*
X71628000Y-37084000D03*
X76708000Y-37084000D03*
X91948000Y-37084000D03*
X94488000Y-37084000D03*
X89408000Y-37084000D03*
X69088000Y-37084000D03*
X84328000Y-37084000D03*
X86868000Y-37084000D03*
X81788000Y-37084000D03*
X79248000Y-37084000D03*
X99568000Y-37084000D03*
X97028000Y-37084000D03*
X102108000Y-37084000D03*
M02*
