M48
;DRILL file {KiCad 4.0.4-stable} date 02/23/17 08:49:55
;FORMAT={2:4/ absolute / inch / suppress leading zeros}
FMAT,2
INCH,TZ
T1C0.016
T2C0.030
T3C0.039
T4C0.040
%
G90
G05
M72
T1
X25500Y-13250
X26750Y-21500
X27250Y-20750
X27250Y-22000
X27250Y-22750
X30500Y-17000
X30500Y-17750
X31000Y-17750
X31500Y-18500
X33000Y-27250
X35250Y-17000
X35250Y-26750
X36250Y-27000
X36500Y-27750
X37750Y-17750
X37750Y-18500
X38000Y-13750
X38250Y-18750
X38250Y-20000
X38750Y-17250
X39000Y-27000
X40250Y-19250
X40750Y-13750
X41000Y-27000
X42250Y-27000
X42750Y-15750
X43000Y-23500
X43500Y-20250
X43500Y-21500
X43750Y-15000
T2
X33000Y-12800
X34000Y-12800
X35000Y-12800
X36000Y-12800
T3
X25800Y-25400
X26800Y-25400
X27800Y-25400
X28800Y-25400
X32600Y-25400
X33600Y-25400
X34600Y-25400
X35600Y-25400
X39600Y-25400
X40600Y-25400
X41600Y-25400
X42600Y-25400
T4
X27200Y-14600
X27200Y-23600
X28200Y-14600
X28200Y-23600
X29200Y-14600
X29200Y-23600
X30200Y-14600
X30200Y-23600
X31200Y-14600
X31200Y-23600
X32200Y-14600
X32200Y-23600
X33200Y-14600
X33200Y-23600
X34200Y-14600
X34200Y-23600
X35200Y-14600
X35200Y-23600
X36200Y-14600
X36200Y-23600
X37200Y-14600
X37200Y-23600
X38200Y-14600
X38200Y-23600
X39200Y-14600
X39200Y-23600
X40200Y-14600
X40200Y-23600
X41200Y-14600
X41200Y-23600
T0
M30
